<svg width="97" height="29" viewBox="0 0 97 29" fill="none" xmlns="http://www.w3.org/2000/svg">
<g clip-path="url(#clip0_126_4)">
<path d="M90.197 7.91089H91.86L93.276 11.9366C93.348 12.1434 93.395 12.3105 93.419 12.4458C93.427 12.3821 93.491 12.1355 93.563 11.9366L94.923 7.91089H96.57V13.48H95.567V9.7328C95.567 9.35887 95.575 9.09632 95.583 8.9372L94.056 13.48H92.783L91.168 8.9372C91.184 9.18384 91.192 9.44638 91.192 9.7328V13.48H90.197V7.91089Z" fill="black"/>
<path d="M85 7.91089H89.757V8.794H87.904V13.48H86.861V8.794H85V7.91089Z" fill="black"/>
<path d="M39.75 4H4C1.79086 4 0 5.79086 0 8V21.25C0 23.4591 1.79086 25.25 4 25.25H39.75C41.9591 25.25 43.75 23.4591 43.75 21.25V8C43.75 5.79086 41.9591 4 39.75 4Z" fill="url(#paint0_linear_126_4)"/>
<path d="M53.136 18V24H50.256V7.68H55.704C57.352 7.68 58.616 8.104 59.496 8.952C60.392 9.784 60.84 10.904 60.84 12.312V13.344C60.84 14.272 60.64 15.088 60.24 15.792C59.84 16.496 59.264 17.032 58.512 17.4C59.824 19.64 60.944 21.84 61.872 24H58.584C57.784 22 56.832 20 55.728 18H53.136ZM55.704 10.32H53.136V15.36H55.704C56.408 15.36 56.944 15.184 57.312 14.832C57.696 14.464 57.888 13.968 57.888 13.344V12.312C57.888 11.704 57.696 11.224 57.312 10.872C56.944 10.504 56.408 10.32 55.704 10.32ZM74.337 21.24V24H64.881V7.68H74.097V10.44H67.761V14.352H73.377V17.112H67.761V21.24H74.337ZM80.6282 24H77.7482V7.68H80.6282V24Z" fill="black"/>
</g>
<defs>
<linearGradient id="paint0_linear_126_4" x1="0" y1="14.625" x2="43.75" y2="14.625" gradientUnits="userSpaceOnUse">
<stop stop-color="#FF2600"/>
<stop offset="0.3125" stop-color="#EBB94C"/>
<stop offset="0.682292" stop-color="#0B90CB"/>
<stop offset="1" stop-color="#9437BF"/>
</linearGradient>
<clipPath id="clip0_126_4">
<rect width="97" height="29" fill="white"/>
</clipPath>
</defs>
</svg>
